<?xml version="1.0" standalone="no"?>
<!DOCTYPE svg PUBLIC "-//W3C//DTD SVG 20010904//EN"
 "http://www.w3.org/TR/2001/REC-SVG-20010904/DTD/svg10.dtd">
<svg version="1.0" xmlns="http://www.w3.org/2000/svg"
 width="1300.000000pt" height="1300.000000pt" viewBox="0 0 1300.000000 1300.000000"
 preserveAspectRatio="xMidYMid meet">
<metadata>
Created by potrace 1.11, written by Peter Selinger 2001-2013
</metadata>
<g transform="translate(0.000000,1300.000000) scale(0.100000,-0.100000)"
fill="#000000" stroke="none">
<path d="M6237 12715 c-26 -19 -71 -62 -100 -96 -73 -88 -179 -199 -189 -199
-12 0 -10 72 4 164 11 72 10 80 -6 92 -10 7 -24 10 -31 8 -20 -8 -145 -197
-198 -300 -26 -50 -60 -103 -76 -118 l-28 -27 -20 33 c-25 43 -57 68 -168 130
-49 28 -112 68 -139 89 -51 41 -85 49 -106 24 -7 -9 -13 -54 -14 -117 -2 -115
-20 -165 -97 -285 -39 -59 -60 -74 -121 -89 -26 -6 -29 -2 -63 72 l-36 79 15
120 c9 66 18 141 22 166 6 41 4 48 -14 58 -13 7 -29 8 -44 2 -55 -21 -205
-146 -368 -307 l-175 -173 -28 43 c-15 24 -47 64 -70 90 -50 53 -86 60 -112
24 -26 -38 -58 -159 -59 -225 -1 -35 -2 -63 -2 -63 -5 0 -106 145 -128 183
-57 99 -62 84 -131 -393 -19 -135 -40 -261 -46 -281 -15 -49 -76 -79 -159 -79
-32 0 -62 -5 -65 -10 -4 -6 -12 -10 -18 -9 -30 4 -38 -2 -35 -23 2 -17 23 -33
80 -63 107 -56 107 -56 73 -107 -33 -51 -65 -81 -162 -154 -39 -30 -85 -70
-101 -88 -16 -19 -63 -61 -104 -94 -251 -204 -444 -506 -609 -957 -104 -283
-301 -1163 -356 -1595 -25 -193 -23 -632 2 -716 10 -33 22 -63 27 -68 16 -19
7 -23 -62 -29 -87 -7 -158 -39 -225 -99 -55 -50 -104 -135 -112 -195 -5 -41 9
-108 29 -136 11 -15 13 -7 13 51 0 60 4 74 30 112 57 83 174 136 279 128 95
-8 154 -39 239 -126 125 -129 208 -285 178 -334 -6 -10 -11 -21 -11 -25 0 -5
5 -1 10 7 7 11 10 4 10 -26 0 -88 -31 -363 -50 -429 -10 -38 -28 -131 -39
-206 -11 -75 -38 -221 -60 -325 -22 -104 -51 -271 -66 -372 -14 -100 -37 -226
-51 -280 -27 -109 -51 -278 -60 -424 l-6 -97 -43 -7 c-24 -3 -58 -3 -77 1 -51
11 -135 54 -165 83 -36 38 -155 350 -166 440 l-5 42 46 -33 c26 -19 57 -40 70
-46 29 -15 34 -24 -94 169 -116 175 -131 206 -177 340 -43 126 -56 265 -37
400 21 157 29 177 212 516 36 67 78 143 94 170 63 109 -74 -54 -191 -226 l-57
-85 7 60 c16 140 48 297 80 398 19 59 35 113 35 120 -1 26 -93 -182 -117 -263
-21 -73 -25 -104 -24 -217 0 -76 -4 -135 -10 -138 -38 -24 -115 -256 -139
-417 -37 -247 32 -479 188 -636 l76 -77 2 -140 c1 -186 31 -348 77 -416 57
-86 261 -138 355 -90 23 11 43 21 45 21 2 0 3 -199 3 -442 -1 -414 1 -450 21
-558 58 -308 159 -557 300 -741 203 -267 333 -407 507 -546 67 -54 146 -119
176 -144 59 -50 130 -106 250 -196 41 -32 107 -85 145 -118 74 -65 200 -147
253 -166 18 -6 62 -31 99 -55 37 -24 70 -44 74 -44 4 0 28 -55 54 -122 110
-283 161 -354 439 -607 110 -100 314 -227 427 -265 99 -32 634 -118 1069 -170
599 -73 1088 -67 1256 15 56 27 147 109 205 186 24 32 79 94 124 138 189 188
411 430 514 559 88 110 131 154 209 214 144 111 725 697 834 842 72 96 198
301 198 323 0 3 34 68 76 144 167 306 292 645 334 913 7 41 23 126 36 189 34
157 91 613 109 871 8 118 15 323 15 455 0 132 5 310 10 395 5 85 5 171 1 190
-7 32 -8 30 -14 -30 -3 -36 -15 -123 -25 -195 -19 -121 -25 -199 -53 -707 -17
-320 -62 -692 -104 -879 -39 -170 -65 -230 -284 -669 -139 -277 -169 -333
-254 -470 -19 -30 -47 -78 -62 -107 -30 -56 -168 -234 -280 -361 -38 -44 -93
-108 -122 -143 -29 -35 -90 -103 -135 -150 -82 -86 -84 -87 -149 -99 -95 -17
-130 -5 -204 71 -91 93 -152 139 -186 139 -21 0 -45 -15 -92 -60 -36 -33 -69
-60 -75 -60 -13 0 -61 -61 -98 -125 -25 -44 -258 -359 -338 -458 -77 -95 -233
-184 -371 -212 -132 -27 -226 -8 -327 66 -25 19 -79 57 -119 84 -94 65 -219
164 -292 233 l-58 55 -65 -7 c-38 -4 -114 -25 -187 -52 -67 -26 -167 -60 -222
-76 -92 -28 -108 -30 -220 -26 -142 5 -168 15 -266 95 -80 66 -163 171 -229
292 -25 45 -66 119 -91 164 -25 45 -94 172 -154 282 -106 197 -226 374 -302
447 -40 38 -124 88 -152 89 -10 0 -7 4 8 10 49 20 10 20 -71 1 -46 -11 -116
-26 -157 -32 -47 -8 -97 -25 -140 -47 -187 -100 -204 -105 -293 -84 -87 20
-451 389 -569 576 -34 54 -81 125 -106 159 -98 133 -223 453 -243 621 -5 50
-22 202 -36 338 -26 242 -26 248 -8 269 19 20 19 21 -2 14 -20 -6 -22 -1 -35
121 -10 91 -13 235 -11 498 2 413 14 625 42 795 10 63 21 144 25 180 11 111
36 252 47 274 13 24 45 204 88 491 82 549 145 806 264 1073 63 143 120 225
244 350 101 101 113 110 201 147 112 47 175 85 192 117 14 25 13 156 -1 173
-11 14 -27 102 -40 220 -6 55 -25 181 -42 280 -26 157 -30 195 -24 295 7 140
31 248 86 400 72 195 128 293 287 497 91 117 436 422 593 524 61 39 254 129
277 129 11 0 8 -6 -8 -20 -34 -27 -11 -25 32 4 75 51 142 56 454 35 295 -20
850 -18 1020 4 195 25 535 112 708 182 86 35 140 44 152 26 3 -5 31 -15 63
-22 76 -15 367 -118 467 -164 44 -21 136 -60 205 -87 69 -27 166 -71 215 -98
281 -149 432 -240 507 -303 33 -29 94 -79 135 -112 55 -45 88 -83 133 -153 33
-51 88 -128 122 -171 35 -43 107 -138 161 -212 54 -74 132 -177 173 -229 59
-74 96 -136 168 -285 212 -433 226 -474 296 -829 55 -284 112 -992 114 -1421
1 -234 0 -245 -36 -457 -21 -120 -44 -277 -53 -350 -8 -74 -26 -181 -40 -238
-25 -106 -76 -424 -74 -470 0 -23 1 -23 9 -5 7 17 9 14 10 -15 2 -32 3 -33 10
-10 6 21 8 17 15 -28 4 -29 11 -55 15 -57 4 -3 15 21 24 53 9 31 23 68 31 82
16 29 19 23 6 -13 -20 -52 -41 -131 -32 -122 10 11 21 37 158 375 94 233 148
410 222 730 152 653 145 606 138 870 -6 256 -44 483 -122 735 -14 44 -43 152
-64 240 -22 88 -51 191 -65 228 -14 37 -42 127 -62 200 -34 124 -118 363 -178
504 -36 87 -35 151 5 237 24 52 30 75 26 104 -10 61 -101 231 -171 318 l-64
82 85 -2 c107 -1 115 7 90 88 -26 82 -108 199 -211 301 -84 84 -142 127 -305
227 -34 21 -61 42 -61 48 0 36 140 -19 217 -85 64 -54 97 -29 64 48 -25 59
-49 76 -236 168 -177 87 -255 139 -255 169 0 21 16 62 38 98 14 21 16 22 33 6
11 -10 22 -14 26 -11 3 4 1 7 -5 7 -16 0 -14 40 3 70 18 32 19 74 2 89 -8 6
-52 20 -98 32 -89 22 -116 22 -302 -2 -53 -6 -100 -9 -104 -5 -4 3 16 39 44
79 68 98 86 134 79 163 -12 46 -49 42 -165 -18 -157 -82 -207 -96 -373 -105
l-86 -4 -38 77 c-36 71 -39 84 -45 198 -11 185 -58 336 -108 349 -31 8 -56
-17 -101 -99 -56 -102 -139 -182 -242 -234 -44 -22 -89 -40 -100 -40 -24 0
-104 69 -130 111 -28 47 -23 86 20 143 50 66 62 89 62 119 0 36 -30 57 -82 57
-67 0 -114 -20 -258 -110 -71 -44 -132 -80 -136 -80 -9 0 4 44 42 142 39 101
41 121 14 148 -36 36 -64 26 -133 -46 -83 -88 -223 -205 -326 -273 l-84 -54
-71 23 c-59 21 -66 25 -45 31 26 7 24 9 -46 30 -146 44 -240 147 -260 284 -7
52 -19 75 -39 74 -6 0 -32 -15 -59 -34z m-2633 -1501 c5 -14 4 -15 -9 -4 -17
14 -19 20 -6 20 5 0 12 -7 15 -16z m1077 -8326 c17 -24 18 -29 6 -19 -18 14
-42 51 -33 51 3 0 15 -15 27 -32z"/>
<path d="M4665 8461 c-68 -41 -217 -230 -300 -379 -48 -88 -54 -115 -29 -150
18 -27 68 -29 162 -7 56 13 242 47 512 93 69 11 158 16 325 15 l230 0 235 -47
c129 -26 298 -60 375 -76 77 -17 190 -39 250 -50 61 -11 131 -26 158 -34 35
-11 47 -12 47 -3 0 7 10 18 21 26 20 12 21 11 14 -6 -4 -10 -10 -29 -12 -43
-4 -24 -4 -24 11 -6 9 11 16 23 16 28 0 12 69 117 113 173 47 59 80 127 71
148 -14 36 -141 67 -447 107 -87 11 -218 34 -291 50 -165 37 -419 74 -641 95
-93 8 -222 23 -285 31 -63 9 -144 20 -180 24 -36 5 -85 13 -110 19 -77 18
-210 14 -245 -8z"/>
<path d="M8560 7764 c30 -7 51 -24 28 -24 -18 0 -70 -109 -93 -195 -8 -33 -18
-91 -21 -130 -5 -62 -4 -68 9 -52 13 16 15 15 27 -12 13 -32 33 -41 100 -41
25 0 90 -11 145 -24 91 -22 153 -43 400 -134 44 -16 130 -54 190 -84 61 -31
150 -72 200 -93 140 -58 363 -199 379 -240 3 -8 20 -18 38 -23 31 -8 34 -6 55
35 32 59 58 286 43 379 -12 75 -50 183 -80 224 -29 41 -173 147 -239 176 -67
30 -489 158 -589 179 -107 22 -369 53 -502 59 -63 3 -104 2 -90 0z"/>
<path d="M5294 7730 c-153 -13 -361 -69 -427 -115 -28 -19 -16 -19 31 1 20 8
60 20 87 25 76 14 528 59 600 59 61 0 239 -34 339 -65 27 -8 51 -14 53 -12 7
8 -119 60 -202 83 -74 21 -116 26 -235 29 -80 2 -190 0 -246 -5z"/>
<path d="M5190 7555 c-120 -21 -170 -43 -392 -171 -197 -114 -197 -114 -171
-114 12 0 106 29 210 65 159 55 313 99 313 91 0 -1 -7 -24 -16 -50 -21 -61
-12 -119 26 -180 17 -26 30 -48 30 -49 0 -1 -75 0 -166 3 -154 5 -200 1 -177
-13 5 -3 121 -20 259 -36 137 -17 287 -36 334 -42 47 -6 121 -15 165 -19 73
-7 266 -31 375 -46 83 -12 29 17 -71 37 -51 11 -111 24 -132 30 l-38 10 35 39
c36 40 59 102 72 192 l6 47 27 -13 c15 -8 112 -71 216 -140 104 -69 193 -126
198 -126 13 0 -149 176 -202 219 -24 20 -65 54 -92 77 -181 151 -541 236 -809
189z m362 -119 c43 -7 80 -14 82 -17 3 -2 -7 -39 -21 -82 -20 -62 -28 -77 -41
-73 -10 3 -42 10 -72 16 -97 18 -93 15 -87 79 11 101 7 99 139 77z"/>
<path d="M2155 7056 c-16 -7 -39 -24 -50 -37 l-20 -23 27 17 c44 28 86 22 122
-16 28 -31 185 -333 216 -417 7 -19 17 -39 22 -44 14 -17 9 147 -7 207 -35
136 -142 284 -230 317 -33 13 -43 12 -80 -4z"/>
<path d="M8096 6913 c-164 -186 -291 -430 -317 -605 -16 -109 0 -478 21 -478
3 0 12 69 19 153 20 258 35 322 128 562 59 153 119 271 195 383 27 39 44 72
39 72 -5 0 -44 -39 -85 -87z"/>
<path d="M8545 6933 c134 -15 281 -37 335 -49 84 -19 263 -85 353 -131 92 -46
301 -186 321 -215 11 -16 16 -18 16 -7 0 44 -166 185 -312 266 -163 90 -418
145 -653 141 -49 0 -76 -3 -60 -5z"/>
<path d="M8541 6744 c-148 -23 -303 -78 -395 -140 -55 -37 -52 -42 13 -19 43
15 267 55 309 55 22 0 22 0 5 -32 -25 -49 -23 -130 6 -168 12 -18 21 -33 19
-35 -1 -1 -50 4 -107 11 -58 8 -106 12 -108 10 -12 -12 595 -209 737 -239 224
-49 269 -45 111 9 -82 28 -83 29 -60 44 65 41 103 111 104 187 0 31 4 53 11
53 11 0 144 -93 226 -158 25 -20 74 -72 108 -115 34 -43 64 -77 66 -74 9 9
-58 163 -89 205 -39 52 -198 182 -300 246 -94 59 -279 129 -409 156 -108 22
-128 23 -247 4z m367 -151 c45 -15 82 -31 82 -37 0 -24 -64 -146 -77 -146 -8
0 -50 16 -93 36 -68 31 -79 40 -75 58 2 11 6 41 10 65 10 73 4 72 153 24z"/>
<path d="M2360 6180 c-41 -31 -74 -62 -73 -68 2 -7 -4 -9 -14 -5 -12 5 -15 2
-10 -10 4 -10 2 -14 -7 -11 -7 3 -40 -24 -73 -59 -73 -76 -83 -108 -58 -192
23 -80 81 -141 208 -218 31 -19 47 -16 30 5 -6 7 -20 39 -32 71 -24 65 -27
154 -10 238 7 30 12 64 13 76 0 11 4 19 8 17 4 -3 10 12 14 33 7 41 35 101 66
146 11 16 19 30 17 31 -2 2 -38 -22 -79 -54z m-160 -275 c0 -5 -5 -3 -10 5 -5
8 -10 20 -10 25 0 6 5 3 10 -5 5 -8 10 -19 10 -25z m-53 -67 c-3 -7 -5 -2 -5
12 0 14 2 19 5 13 2 -7 2 -19 0 -25z m46 -78 c3 -11 1 -18 -4 -14 -5 3 -9 12
-9 20 0 20 7 17 13 -6z"/>
<path d="M6117 5765 c-75 -38 -127 -78 -188 -142 -71 -75 -130 -149 -124 -157
3 -3 2 -4 -1 -2 -3 3 -14 -3 -23 -12 -19 -19 -81 -115 -81 -125 0 -4 22 6 49
22 l48 29 7 -62 c8 -82 49 -162 104 -203 35 -26 155 -73 187 -73 5 0 -20 29
-54 64 -84 88 -105 139 -97 229 8 91 48 208 93 277 51 77 113 149 143 165 48
27 -11 17 -63 -10z"/>
<path d="M7840 5528 c0 -3 7 -23 16 -44 12 -29 15 -64 12 -149 -3 -103 -6
-115 -41 -189 -20 -43 -53 -101 -73 -127 -20 -27 -30 -49 -24 -49 24 0 137
126 166 185 26 54 29 70 28 155 0 77 -4 104 -23 142 -19 40 -61 92 -61 76z"/>
<path d="M8140 5155 c0 -4 14 -40 31 -82 43 -103 43 -160 -1 -250 -21 -43 -55
-88 -89 -122 -45 -43 -51 -52 -31 -47 78 22 113 41 153 86 l43 48 14 -31 14
-32 8 30 c11 37 2 191 -14 237 -14 40 -80 136 -108 155 -11 8 -20 11 -20 8z"/>
<path d="M6350 5046 c-19 -7 -51 -24 -71 -37 -34 -24 -36 -27 -23 -50 18 -36
89 -83 111 -75 10 4 14 4 10 0 -10 -10 84 -46 103 -39 8 4 11 3 7 -1 -4 -4 21
-23 55 -42 34 -19 87 -60 118 -91 62 -65 145 -109 267 -142 61 -17 97 -20 178
-17 101 3 102 4 185 52 67 39 87 46 99 37 20 -14 29 -18 64 -25 15 -4 27 -13
27 -21 0 -52 232 -44 318 11 29 19 30 -1 0 -33 -18 -19 -19 -23 -5 -23 39 0
95 32 112 64 23 42 16 137 -13 175 -53 72 -225 76 -322 8 -18 -12 -11 -14 57
-11 l78 3 -70 -18 c-82 -22 -166 -51 -180 -62 -18 -14 -167 -66 -227 -79 -74
-17 -156 -1 -252 47 -126 63 -189 111 -306 229 -123 125 -170 154 -243 154
-23 -1 -58 -7 -77 -14z"/>
<path d="M4839 4960 c-57 -17 -189 -93 -248 -143 -107 -91 -166 -180 -196
-294 -30 -117 -11 -409 34 -507 l19 -41 1 51 c2 90 31 347 48 419 9 39 29 97
45 130 56 113 193 271 301 347 31 23 57 42 57 44 0 6 -33 3 -61 -6z"/>
<path d="M5155 4700 c-93 -4 -213 -15 -265 -24 -142 -25 -259 -87 -294 -155
-34 -66 -26 -194 22 -331 18 -52 19 -53 25 -24 4 22 19 38 54 60 26 17 59 34
72 37 67 16 777 -38 1144 -88 158 -21 406 -48 692 -74 58 -5 95 -3 133 8 l52
14 40 -45 c63 -72 224 -146 505 -233 61 -19 196 -64 300 -101 105 -36 276 -88
380 -115 227 -58 306 -89 356 -142 32 -32 37 -43 32 -68 -7 -37 5 -38 18 0 8
22 18 31 45 36 30 5 42 17 80 75 132 204 124 318 -31 436 -43 33 -149 76 -395
161 -118 41 -235 85 -260 98 -25 12 -130 53 -234 89 -283 99 -552 140 -661
101 -22 -8 -41 -15 -41 -15 -1 0 -5 20 -8 44 -9 57 -39 88 -109 114 -63 24
-239 62 -286 62 -16 0 -34 7 -38 15 -7 11 -54 18 -203 30 -107 8 -235 20 -285
26 -118 14 -624 19 -840 9z"/>
<path d="M3755 4629 c-2 -8 -16 -57 -30 -109 -40 -150 -41 -201 -10 -405 15
-99 29 -182 31 -184 9 -9 3 121 -11 257 -16 146 -12 204 25 402 8 44 5 67 -5
39z"/>
<path d="M4960 4100 c134 -124 224 -172 413 -220 150 -37 273 -50 577 -60 267
-8 270 -8 705 -90 170 -32 453 -101 700 -170 163 -46 362 -87 466 -96 65 -6
245 3 236 13 -3 2 -60 13 -126 24 -126 20 -172 31 -376 92 -66 20 -217 62
-335 92 -118 31 -249 67 -290 79 -41 13 -160 45 -265 70 -104 26 -251 62 -325
81 -74 19 -166 39 -205 45 -69 11 -360 28 -545 33 -95 3 -274 26 -405 52 -44
9 -111 35 -178 70 -60 30 -112 55 -115 55 -4 0 27 -32 68 -70z"/>
<path d="M8670 4145 c0 -40 44 -299 66 -390 40 -167 30 -235 -56 -371 -23 -36
-39 -68 -36 -71 7 -7 91 64 145 122 67 73 84 121 78 224 -5 91 -4 89 -124 364
-54 124 -73 155 -73 122z"/>
<path d="M5877 3419 c30 -52 140 -144 252 -210 58 -34 108 -64 110 -66 3 -2
-7 -16 -20 -31 -39 -42 -119 -168 -119 -186 0 -13 11 -16 53 -16 30 0 56 -3
59 -6 4 -3 -5 -38 -18 -77 -19 -55 -22 -77 -15 -94 12 -26 25 -28 104 -12 73
15 89 4 86 -60 -5 -108 35 -123 162 -63 3 1 27 -25 53 -58 39 -51 51 -61 74
-58 24 3 37 16 78 84 11 18 14 17 45 -12 75 -69 113 -80 148 -42 12 12 24 37
27 55 5 27 10 33 23 27 9 -3 36 -9 61 -11 52 -6 68 7 85 66 8 29 16 37 38 39
60 7 56 75 -9 150 -38 45 -68 107 -59 122 4 6 19 10 34 10 41 0 158 33 229 65
67 30 82 49 30 37 -18 -4 -107 -7 -198 -7 -178 1 -276 13 -565 70 -187 37
-260 59 -440 133 -163 66 -219 96 -270 143 -51 47 -62 49 -38 8z"/>
<path d="M9540 2524 c-10 -11 -9 -21 3 -47 9 -18 19 -53 23 -78 l7 -44 -29 25
c-15 14 -35 34 -44 44 -19 21 -50 16 -50 -8 0 -8 43 -47 96 -86 90 -67 122
-81 98 -42 -9 13 -6 21 14 36 36 29 116 140 103 144 -7 2 -22 -9 -34 -25 -12
-15 -38 -46 -59 -68 -45 -49 -55 -42 -68 46 -15 94 -18 106 -34 112 -8 3 -20
-1 -26 -9z"/>
<path d="M9425 2300 c-10 -22 -26 -42 -36 -45 -10 -4 -25 -27 -34 -55 -17 -51
-14 -70 10 -70 7 0 16 -11 19 -25 7 -27 25 -32 44 -13 9 9 12 6 12 -14 0 -32
25 -59 46 -51 16 6 60 83 47 83 -5 0 -16 -14 -25 -30 -25 -44 -44 -38 -52 15
-8 47 -14 53 -34 33 -9 -9 -12 1 -12 45 0 51 2 57 20 54 11 -2 26 -9 32 -15 7
-7 20 -12 29 -12 10 0 20 -11 24 -27 17 -68 42 -68 95 -2 56 71 50 85 -8 20
-50 -56 -54 -57 -66 -8 -4 17 -16 31 -31 37 -22 9 -25 15 -25 65 0 47 -3 55
-18 55 -12 0 -25 -14 -37 -40z"/>
<path d="M9227 2164 c-4 -4 -7 -15 -7 -25 0 -10 -9 -23 -21 -29 -28 -16 -101
-169 -102 -219 -2 -37 -3 -38 -20 -24 -9 9 -20 13 -24 9 -4 -3 13 -27 37 -51
48 -49 40 -57 -30 -29 -71 29 -88 -13 -38 -94 11 -18 31 -40 45 -49 22 -15 26
-15 40 0 19 19 10 47 -15 47 -20 0 -55 34 -65 63 -8 21 -5 21 57 2 27 -8 55
-15 63 -15 22 0 15 35 -12 60 -25 24 -26 24 -5 32 18 7 20 13 14 45 l-6 38 66
-65 c45 -44 69 -61 76 -54 7 7 -6 31 -41 75 -28 35 -59 71 -69 80 -18 16 -18
18 9 75 l28 59 13 -60 c30 -145 97 -196 156 -121 26 32 29 33 48 20 24 -16 46
-18 46 -4 0 6 -6 10 -14 10 -18 0 -74 64 -81 93 -2 12 -6 33 -7 47 -3 29 -32
39 -42 15 -3 -9 -9 -41 -12 -71 -6 -46 -4 -55 11 -60 11 -5 22 -1 30 9 11 16
14 16 25 2 11 -14 9 -21 -17 -47 -27 -26 -33 -29 -53 -18 -37 20 -52 74 -49
169 3 71 1 86 -11 89 -9 1 -19 0 -23 -4z"/>
<path d="M8905 1776 c-8 -19 -15 -45 -15 -56 0 -11 -7 -20 -15 -20 -51 0 -46
-193 7 -237 12 -11 21 -10 47 3 31 15 58 50 47 61 -3 3 -15 -5 -26 -18 -20
-24 -20 -24 -35 -5 -8 11 -15 32 -15 47 0 14 -3 48 -7 74 l-6 48 24 -16 c13
-9 31 -17 41 -17 14 0 18 -8 18 -39 0 -49 18 -66 48 -45 12 8 22 23 22 32 -1
16 -2 16 -14 0 -28 -38 -46 -15 -46 59 0 35 -3 44 -15 40 -11 -5 -15 7 -17 55
-4 72 -21 86 -43 34z m-26 -184 c0 -41 -3 -51 -9 -37 -12 29 -12 108 0 100 6
-3 10 -32 9 -63z"/>
<path d="M8740 1581 c-5 -11 -10 -44 -11 -73 -1 -50 -1 -51 -10 -20 -5 17 -12
32 -16 32 -7 0 2 -89 12 -115 8 -20 8 -20 -14 -1 -20 18 -23 18 -37 4 -20 -20
-16 -27 36 -63 56 -39 72 -24 47 44 -21 60 -21 67 -2 51 12 -10 18 -10 30 0
13 11 15 6 15 -36 0 -66 9 -94 29 -94 17 0 61 66 61 91 0 8 -10 -4 -23 -25
-36 -64 -46 -57 -49 31 -3 67 -5 78 -20 77 -13 -1 -18 6 -18 27 0 15 5 31 10
34 16 10 12 42 -6 49 -22 8 -22 8 -34 -13z"/>
<path d="M8560 1384 c-13 -33 -13 -61 0 -69 6 -3 10 -22 10 -41 0 -37 25 -58
40 -34 5 8 10 1 15 -21 15 -69 43 -72 76 -7 26 50 18 61 -9 13 -32 -53 -52
-42 -52 29 0 39 -8 50 -27 34 -12 -9 -13 -1 -7 55 6 64 6 67 -15 67 -14 0 -25
-9 -31 -26z"/>
<path d="M8473 1293 c-11 -23 -19 -73 -21 -129 -3 -77 -1 -93 14 -109 17 -17
19 -17 35 4 9 11 24 21 31 21 16 0 50 34 68 68 16 32 6 38 -13 9 -20 -32 -46
-57 -57 -57 -5 0 -11 50 -12 112 -3 124 -16 147 -45 81z m27 -88 c0 -87 -13
-114 -23 -49 -6 33 9 134 19 134 2 0 4 -38 4 -85z"/>
<path d="M8359 1210 c-61 -35 -43 -328 23 -374 26 -19 40 -13 62 27 l18 32
-24 -29 c-16 -19 -30 -27 -41 -23 -61 23 -89 278 -36 339 19 23 19 23 34 4 22
-29 19 -53 -7 -52 -21 1 -23 -4 -26 -55 -3 -60 11 -113 30 -107 6 2 18 31 27
64 19 69 13 134 -14 164 -20 23 -23 23 -46 10z"/>
</g>
</svg>
